<?xml version="1.0" encoding="utf-8"?>
<!-- Generator: Adobe Illustrator 16.0.1, SVG Export Plug-In . SVG Version: 6.00 Build 0)  -->
<!DOCTYPE svg PUBLIC "-//W3C//DTD SVG 1.1//EN" "http://www.w3.org/Graphics/SVG/1.1/DTD/svg11.dtd">
<svg version="1.1" id="connect_icons" xmlns="http://www.w3.org/2000/svg" xmlns:xlink="http://www.w3.org/1999/xlink" x="0px"
	 y="0px" width="68px" height="16px" viewBox="0 0 68 16" enable-background="new 0 0 68 16" xml:space="preserve">
<g id="rss">
	<g>
		<path fill="#858585" d="M65.969,13.415v0.366h-2.004v-0.366c0-5.575-4.531-10.106-10.101-10.106H53.5V1.305h0.364
			C60.537,1.305,65.969,6.735,65.969,13.415z"/>
	</g>
	<g>
		<path fill="#858585" d="M61.869,13.398v0.362h-2.229v-0.362c0-3.188-2.59-5.781-5.775-5.781h-0.363V5.389h0.363
			C58.279,5.389,61.869,8.982,61.869,13.398z"/>
	</g>
	<circle fill="#858585" cx="55.188" cy="12.099" r="1.498"/>
</g>
<path id="Flickr" fill="#858585" d="M51.863,7.538c0,1.776-1.449,3.222-3.24,3.222c-1.78,0-3.23-1.445-3.23-3.222
	c0-1.773,1.45-3.211,3.23-3.211C50.414,4.327,51.863,5.766,51.863,7.538z M40.268,4.327c-1.787,0-3.234,1.439-3.234,3.211
	c0,1.776,1.447,3.222,3.234,3.222c1.789,0,3.239-1.445,3.239-3.222C43.508,5.766,42.059,4.327,40.268,4.327z"/>
<path id="facebook" fill="#858585" d="M23.435,5.499h-2.479V3.503c0-0.414,0.49-0.853,0.957-0.853h1.545V0.445h-2.189
	c-1.071,0-1.883,0.259-2.409,0.77c-0.477,0.459-0.716,1.107-0.713,1.928v2.366h-1.601v2.1h1.601v7.034h2.797V7.608h2.237
	C23.237,7.241,23.356,6.41,23.435,5.499z"/>
<path id="twitter_bird" fill="#858585" d="M14.703,3.289c-0.504,0.224-1.046,0.375-1.616,0.444c0.583-0.348,1.03-0.898,1.237-1.556
	C13.781,2.5,13.18,2.734,12.538,2.858c-0.511-0.545-1.243-0.888-2.051-0.888c-1.554,0-2.813,1.258-2.813,2.812
	c0,0.221,0.027,0.435,0.072,0.64C5.413,5.305,3.34,4.186,1.955,2.486C1.712,2.901,1.574,3.382,1.574,3.898
	c0,0.975,0.495,1.835,1.25,2.342C2.363,6.224,1.929,6.099,1.55,5.887c0,0.011,0,0.022,0,0.034c0,1.363,0.97,2.499,2.255,2.757
	C3.569,8.743,3.321,8.78,3.065,8.78c-0.181,0-0.356-0.021-0.529-0.054c0.358,1.125,1.397,1.938,2.627,1.963
	c-0.963,0.752-2.174,1.205-3.492,1.205c-0.228,0-0.452-0.019-0.671-0.043c1.244,0.799,2.722,1.267,4.309,1.267
	c5.17,0,8-4.292,8-8.01c0-0.122-0.002-0.242-0.011-0.365C13.85,4.348,14.326,3.852,14.703,3.289z"/>
<g id="Google">
	<g>
		<path fill="#858585" d="M32.301,8.533L31.65,8.044c-0.151-0.141-0.313-0.282-0.313-0.5c0-0.238,0.15-0.401,0.347-0.597
			l0.032-0.043c0.693-0.532,1.553-1.216,1.553-2.661c0-0.771-1.486-1.628-2.01-2.204h2.173V1.008H30.38
			c-0.879,0-2.182,0.109-3.279,1.01c-0.76,0.651-1.216,1.596-1.216,2.53c0,1.455,1.107,3.008,3.16,3.008c0.043,0,0.087,0,0.13-0.011
			c-0.021,0.098-0.033,0.217-0.033,0.348c0,0.391,0.12,0.684,0.271,0.934c-0.922,0.076-2.041,0.25-2.921,0.793
			c-1.357,0.803-1.466,1.998-1.466,2.345c0,1.368,1.238,2.758,3.996,2.758c3.171,0,5.478-1.775,5.478-3.539
			C34.5,9.847,33.073,9.186,32.301,8.533z M29.869,13.42c-1.64,0-2.736-0.729-2.736-1.814c0-1.021,0.912-1.363,1.281-1.498
			c0.739-0.25,1.705-0.261,1.716-0.261V9.705l0.022,0.142c0.119,0,0.184,0,0.271,0.011c1.326,0.938,1.705,1.314,1.705,1.987
			C32.127,12.811,31.258,13.42,29.869,13.42z M27.991,3.701c0-0.479,0.098-0.836,0.304-1.086c0.228-0.271,0.63-0.466,0.988-0.466
			c1.172,0,1.889,1.683,1.889,2.877c0,0.489-0.108,0.825-0.336,1.064c-0.25,0.239-0.64,0.391-0.977,0.391
			C28.534,6.48,27.991,4.678,27.991,3.701z"/>
	</g>
</g>
</svg>
